<?xml version="1.0" encoding="UTF-8"?>

<svg version="1.2" baseProfile="tiny" width="280mm" height="157.5mm" viewBox="0 0 28000 15750" preserveAspectRatio="xMidYMid" fill-rule="evenodd" clip-path="url(#presentation_clip_path)" stroke-width="28.222" stroke-linejoin="round" xmlns="http://www.w3.org/2000/svg" xmlns:ooo="http://xml.openoffice.org/svg/export" xmlns:xlink="http://www.w3.org/1999/xlink" xml:space="preserve">
 <defs class="ClipPathGroup">
  <clipPath id="presentation_clip_path" clipPathUnits="userSpaceOnUse">
   <rect x="0" y="0" width="28000" height="15750"/>
  </clipPath>
 </defs>
 <defs class="TextShapeIndex">
  <g ooo:slide="id1" ooo:id-list="id3 id4 id5 id6 id7 id8"/>
 </defs>
 <defs class="EmbeddedBulletChars">
  <g id="bullet-char-template(57356)" transform="scale(0.00048828125,-0.00048828125)">
   <path d="M 580,1141 L 1163,571 580,0 -4,571 580,1141 Z"/>
  </g>
  <g id="bullet-char-template(57354)" transform="scale(0.00048828125,-0.00048828125)">
   <path d="M 8,1128 L 1137,1128 1137,0 8,0 8,1128 Z"/>
  </g>
  <g id="bullet-char-template(10146)" transform="scale(0.00048828125,-0.00048828125)">
   <path d="M 174,0 L 602,739 174,1481 1456,739 174,0 Z M 1358,739 L 309,1346 659,739 1358,739 Z"/>
  </g>
  <g id="bullet-char-template(10132)" transform="scale(0.00048828125,-0.00048828125)">
   <path d="M 2015,739 L 1276,0 717,0 1260,543 174,543 174,936 1260,936 717,1481 1274,1481 2015,739 Z"/>
  </g>
  <g id="bullet-char-template(10007)" transform="scale(0.00048828125,-0.00048828125)">
   <path d="M 0,-2 C -7,14 -16,27 -25,37 L 356,567 C 262,823 215,952 215,954 215,979 228,992 255,992 264,992 276,990 289,987 310,991 331,999 354,1012 L 381,999 492,748 772,1049 836,1024 860,1049 C 881,1039 901,1025 922,1006 886,937 835,863 770,784 769,783 710,716 594,584 L 774,223 C 774,196 753,168 711,139 L 727,119 C 717,90 699,76 672,76 641,76 570,178 457,381 L 164,-76 C 142,-110 111,-127 72,-127 30,-127 9,-110 8,-76 1,-67 -2,-52 -2,-32 -2,-23 -1,-13 0,-2 Z"/>
  </g>
  <g id="bullet-char-template(10004)" transform="scale(0.00048828125,-0.00048828125)">
   <path d="M 285,-33 C 182,-33 111,30 74,156 52,228 41,333 41,471 41,549 55,616 82,672 116,743 169,778 240,778 293,778 328,747 346,684 L 369,508 C 377,444 397,411 428,410 L 1163,1116 C 1174,1127 1196,1133 1229,1133 1271,1133 1292,1118 1292,1087 L 1292,965 C 1292,929 1282,901 1262,881 L 442,47 C 390,-6 338,-33 285,-33 Z"/>
  </g>
  <g id="bullet-char-template(9679)" transform="scale(0.00048828125,-0.00048828125)">
   <path d="M 813,0 C 632,0 489,54 383,161 276,268 223,411 223,592 223,773 276,916 383,1023 489,1130 632,1184 813,1184 992,1184 1136,1130 1245,1023 1353,916 1407,772 1407,592 1407,412 1353,268 1245,161 1136,54 992,0 813,0 Z"/>
  </g>
  <g id="bullet-char-template(8226)" transform="scale(0.00048828125,-0.00048828125)">
   <path d="M 346,457 C 273,457 209,483 155,535 101,586 74,649 74,723 74,796 101,859 155,911 209,963 273,989 346,989 419,989 480,963 531,910 582,859 608,796 608,723 608,648 583,586 532,535 482,483 420,457 346,457 Z"/>
  </g>
  <g id="bullet-char-template(8211)" transform="scale(0.00048828125,-0.00048828125)">
   <path d="M -4,459 L 1135,459 1135,606 -4,606 -4,459 Z"/>
  </g>
 </defs>
 <defs class="TextEmbeddedBitmaps"/>
 <g>
  <g id="id2" class="Master_Slide">
   <g id="bg-id2" class="Background"/>
   <g id="bo-id2" class="BackgroundObjects"/>
  </g>
 </g>
 <g class="SlideGroup">
  <g>
   <g id="id1" class="Slide" clip-path="url(#presentation_clip_path)">
    <g class="Page">
     <g class="Group">
      <g class="com.sun.star.drawing.ClosedBezierShape">
       <g id="id3">
        <path fill="rgb(106,98,39)" stroke="none" d="M 17635,1760 L 16790,1449 16549,1840 17191,2443 C 17145,2581 17110,2728 17102,2877 L 16276,3255 16382,3702 17267,3673 C 17334,3807 17420,3929 17518,4037 L 17206,4883 17596,5124 18199,4482 C 18338,4528 18481,4549 18630,4557 L 19005,5370 19451,5265 19425,4392 C 19559,4326 19683,4247 19791,4149 L 20637,4464 20879,4075 20236,3473 C 20283,3334 20306,3191 20313,3042 L 21127,2667 21022,2220 20148,2247 C 20082,2113 20002,1989 19904,1881 L 20219,1034 19830,793 19228,1435 C 19089,1389 18943,1352 18794,1344 L 18415,517 17969,622 17999,1509 C 17865,1576 17743,1662 17635,1760 Z M 19386,2800 C 19474,3172 19244,3544 18872,3631 18501,3719 18129,3489 18041,3117 17954,2745 18184,2373 18555,2285 18927,2198 19299,2428 19386,2800 Z"/>
       </g>
      </g>
      <g class="com.sun.star.drawing.ClosedBezierShape">
       <g id="id4">
        <path fill="rgb(106,98,39)" stroke="none" d="M 24397,500 L 23917,1676 C 23701,1683 23490,1720 23290,1785 L 22361,876 21814,1247 22306,2418 C 22162,2572 22039,2747 21942,2938 L 20640,2952 20516,3600 21691,4082 C 21699,4298 21736,4508 21802,4708 L 20892,5636 21263,6183 22435,5693 C 22589,5836 22763,5958 22955,6056 L 22969,7357 23618,7481 24099,6307 C 24315,6299 24526,6262 24725,6198 L 25655,7108 26202,6736 25711,5565 C 25853,5411 25977,5237 26074,5045 L 27376,5032 27500,4383 26325,3901 C 26316,3686 26280,3476 26214,3276 L 27124,2347 26753,1800 25581,2290 C 25426,2148 25253,2024 25061,1927 L 25047,624 24397,500 Z M 24195,3013 C 24736,3117 25090,3639 24986,4180 24883,4720 24361,5074 23821,4971 23280,4867 22926,4345 23028,3804 23132,3264 23654,2909 24195,3013 Z"/>
       </g>
      </g>
      <g class="com.sun.star.drawing.ClosedBezierShape">
       <g id="id5">
        <path fill="rgb(106,98,39)" stroke="none" d="M 22056,12897 L 22699,13095 C 22714,13208 22743,13318 22787,13420 L 22352,13953 22573,14224 23168,13909 C 23256,13978 23354,14034 23460,14077 L 23529,14763 23877,14797 24075,14155 C 24189,14140 24298,14111 24400,14067 L 24933,14503 25204,14281 24889,13686 C 24958,13598 25014,13500 25056,13395 L 25742,13326 25777,12977 25134,12780 C 25120,12666 25090,12557 25047,12454 L 25482,11921 25260,11650 24666,11965 C 24578,11897 24480,11840 24374,11798 L 24305,11112 23957,11077 23759,11720 C 23646,11734 23536,11763 23434,11808 L 22901,11372 22630,11593 22944,12188 C 22876,12276 22819,12374 22777,12480 L 22091,12549 22056,12897 Z M 23392,12885 C 23421,12595 23679,12383 23969,12412 24260,12441 24471,12700 24442,12990 24414,13280 24155,13491 23865,13463 23575,13433 23363,13175 23392,12885 Z"/>
       </g>
      </g>
      <g class="com.sun.star.drawing.ClosedBezierShape">
       <g id="id6">
        <path fill="rgb(106,98,39)" stroke="none" d="M 22929,10865 L 23318,11677 23763,11564 23723,10684 C 23852,10617 23980,10536 24089,10434 L 24945,10738 25180,10345 24524,9749 C 24570,9606 24594,9459 24599,9313 L 25411,8923 25299,8478 24419,8519 C 24352,8389 24264,8274 24163,8165 L 24459,7321 24066,7086 23477,7730 C 23334,7684 23190,7655 23045,7650 L 22658,6834 22213,6945 22254,7825 C 22125,7891 22009,7979 21899,8080 L 21054,7783 20818,8176 21464,8766 C 21418,8908 21389,9052 21384,9198 L 20569,9587 20680,10031 21560,9989 C 21626,10119 21706,10247 21808,10357 L 21503,11214 21896,11450 22492,10792 C 22635,10837 22783,10860 22929,10865 Z M 22396,8900 C 22592,8572 23016,8465 23344,8661 23671,8857 23778,9281 23582,9609 23386,9937 22961,10043 22634,9848 22306,9651 22200,9227 22396,8900 Z"/>
       </g>
      </g>
      <g class="com.sun.star.drawing.ClosedBezierShape">
       <g id="id7">
        <path fill="rgb(106,98,39)" stroke="none" d="M 19638,12094 L 20033,12407 C 20013,12490 20004,12575 20007,12658 L 19557,12913 19639,13162 20140,13104 C 20183,13175 20236,13242 20298,13300 L 20160,13798 20394,13917 20707,13522 C 20791,13542 20875,13552 20958,13549 L 21213,13998 21462,13917 21404,13416 C 21476,13372 21541,13319 21600,13257 L 22098,13395 22217,13161 21821,12848 C 21842,12765 21851,12680 21848,12597 L 22298,12343 22216,12093 21715,12151 C 21672,12080 21619,12014 21557,11955 L 21695,11457 21461,11338 21148,11734 C 21065,11713 20980,11704 20897,11707 L 20642,11257 20393,11338 20451,11840 C 20380,11883 20313,11936 20255,11998 L 19757,11860 19638,12094 Z M 20575,12449 C 20674,12254 20912,12176 21107,12275 21302,12374 21380,12612 21281,12807 21182,13002 20943,13080 20748,12981 20553,12882 20476,12643 20575,12449 Z"/>
       </g>
      </g>
      <g class="com.sun.star.drawing.ClosedBezierShape">
       <g id="id8">
        <path fill="rgb(106,98,39)" stroke="none" d="M 16291,2573 L 15674,2841 C 15589,2764 15496,2700 15395,2651 L 15380,1963 15035,1901 14788,2527 C 14677,2533 14565,2553 14458,2590 L 13959,2114 13672,2314 13939,2931 C 13863,3016 13799,3109 13750,3209 L 13061,3225 13000,3569 13626,3816 C 13631,3928 13652,4039 13689,4146 L 13213,4645 13413,4932 14029,4664 C 14114,4741 14208,4805 14308,4854 L 14324,5543 14668,5604 14915,4978 C 15027,4972 15137,4952 15246,4916 L 15744,5392 16031,5191 15764,4574 C 15840,4490 15904,4396 15953,4296 L 16642,4280 16703,3936 16077,3689 C 16072,3578 16051,3466 16015,3359 L 16491,2860 16291,2573 Z M 15284,3450 C 15451,3690 15393,4019 15153,4185 14914,4352 14585,4294 14418,4055 14251,3816 14310,3487 14549,3320 14789,3153 15118,3211 15284,3450 Z"/>
       </g>
      </g>
     </g>
    </g>
   </g>
  </g>
 </g>
</svg>