<?xml version="1.0" encoding="UTF-8"?>

<svg version="1.2" baseProfile="tiny" width="91.2mm" height="91.2mm" viewBox="0 0 9120 9120" preserveAspectRatio="xMidYMid" fill-rule="evenodd" clip-path="url(#presentation_clip_path)" stroke-width="28.222" stroke-linejoin="round" xmlns="http://www.w3.org/2000/svg" xmlns:ooo="http://xml.openoffice.org/svg/export" xmlns:xlink="http://www.w3.org/1999/xlink" xml:space="preserve">
 <defs class="ClipPathGroup">
  <clipPath id="presentation_clip_path" clipPathUnits="userSpaceOnUse">
   <rect x="0" y="0" width="9120" height="9120"/>
  </clipPath>
 </defs>
 <defs class="TextShapeIndex">
  <g ooo:slide="id1" ooo:id-list="id3 id4 id5 id6 id7 id8"/>
 </defs>
 <defs class="EmbeddedBulletChars">
  <g id="bullet-char-template(57356)" transform="scale(0.00048828125,-0.00048828125)">
   <path d="M 580,1141 L 1163,571 580,0 -4,571 580,1141 Z"/>
  </g>
  <g id="bullet-char-template(57354)" transform="scale(0.00048828125,-0.00048828125)">
   <path d="M 8,1128 L 1137,1128 1137,0 8,0 8,1128 Z"/>
  </g>
  <g id="bullet-char-template(10146)" transform="scale(0.00048828125,-0.00048828125)">
   <path d="M 174,0 L 602,739 174,1481 1456,739 174,0 Z M 1358,739 L 309,1346 659,739 1358,739 Z"/>
  </g>
  <g id="bullet-char-template(10132)" transform="scale(0.00048828125,-0.00048828125)">
   <path d="M 2015,739 L 1276,0 717,0 1260,543 174,543 174,936 1260,936 717,1481 1274,1481 2015,739 Z"/>
  </g>
  <g id="bullet-char-template(10007)" transform="scale(0.00048828125,-0.00048828125)">
   <path d="M 0,-2 C -7,14 -16,27 -25,37 L 356,567 C 262,823 215,952 215,954 215,979 228,992 255,992 264,992 276,990 289,987 310,991 331,999 354,1012 L 381,999 492,748 772,1049 836,1024 860,1049 C 881,1039 901,1025 922,1006 886,937 835,863 770,784 769,783 710,716 594,584 L 774,223 C 774,196 753,168 711,139 L 727,119 C 717,90 699,76 672,76 641,76 570,178 457,381 L 164,-76 C 142,-110 111,-127 72,-127 30,-127 9,-110 8,-76 1,-67 -2,-52 -2,-32 -2,-23 -1,-13 0,-2 Z"/>
  </g>
  <g id="bullet-char-template(10004)" transform="scale(0.00048828125,-0.00048828125)">
   <path d="M 285,-33 C 182,-33 111,30 74,156 52,228 41,333 41,471 41,549 55,616 82,672 116,743 169,778 240,778 293,778 328,747 346,684 L 369,508 C 377,444 397,411 428,410 L 1163,1116 C 1174,1127 1196,1133 1229,1133 1271,1133 1292,1118 1292,1087 L 1292,965 C 1292,929 1282,901 1262,881 L 442,47 C 390,-6 338,-33 285,-33 Z"/>
  </g>
  <g id="bullet-char-template(9679)" transform="scale(0.00048828125,-0.00048828125)">
   <path d="M 813,0 C 632,0 489,54 383,161 276,268 223,411 223,592 223,773 276,916 383,1023 489,1130 632,1184 813,1184 992,1184 1136,1130 1245,1023 1353,916 1407,772 1407,592 1407,412 1353,268 1245,161 1136,54 992,0 813,0 Z"/>
  </g>
  <g id="bullet-char-template(8226)" transform="scale(0.00048828125,-0.00048828125)">
   <path d="M 346,457 C 273,457 209,483 155,535 101,586 74,649 74,723 74,796 101,859 155,911 209,963 273,989 346,989 419,989 480,963 531,910 582,859 608,796 608,723 608,648 583,586 532,535 482,483 420,457 346,457 Z"/>
  </g>
  <g id="bullet-char-template(8211)" transform="scale(0.00048828125,-0.00048828125)">
   <path d="M -4,459 L 1135,459 1135,606 -4,606 -4,459 Z"/>
  </g>
 </defs>
 <defs class="TextEmbeddedBitmaps"/>
 <g>
  <g id="id2" class="Master_Slide">
   <g id="bg-id2" class="Background"/>
   <g id="bo-id2" class="BackgroundObjects"/>
  </g>
 </g>
 <g class="SlideGroup">
  <g>
   <g id="id1" class="Slide" clip-path="url(#presentation_clip_path)">
    <g class="Page">
     <g class="com.sun.star.drawing.ClosedBezierShape">
      <g id="id3">
       <path fill="rgb(106,98,39)" stroke="none" d="M 2875,1181 L 2332,1073 2225,1345 2674,1659 C 2660,1751 2653,1848 2663,1943 L 2200,2268 2309,2540 2842,2430 C 2896,2507 2960,2576 3030,2634 L 2926,3201 3186,3313 3487,2844 C 3576,2859 3665,2857 3756,2847 L 4064,3322 4324,3209 4222,2660 C 4296,2605 4364,2542 4419,2469 L 4963,2580 5071,2309 4622,1995 C 4636,1902 4636,1810 4625,1715 L 5081,1392 4973,1121 4446,1228 C 4393,1151 4332,1081 4262,1022 L 4369,454 4109,342 3808,811 C 3719,796 3627,788 3536,798 L 3224,315 2964,427 3070,985 C 2996,1041 2931,1108 2875,1181 Z M 4040,1657 C 4130,1884 4028,2143 3811,2236 3594,2331 3346,2224 3256,1998 3166,1771 3268,1512 3484,1418 3702,1324 3950,1431 4040,1657 Z"/>
      </g>
     </g>
     <g class="com.sun.star.drawing.ClosedBezierShape">
      <g id="id4">
       <path fill="rgb(106,98,39)" stroke="none" d="M 7045,3 L 6800,778 C 6667,792 6539,825 6419,876 L 5809,335 5489,597 5842,1326 C 5760,1431 5692,1549 5640,1675 L 4841,1742 4793,2163 5535,2420 C 5549,2559 5581,2692 5630,2817 L 5111,3452 5362,3786 6061,3420 C 6162,3505 6274,3575 6396,3629 L 6461,4463 6865,4513 7110,3739 C 7243,3724 7371,3691 7490,3641 L 8101,4183 8421,3920 8069,3191 C 8150,3086 8218,2969 8270,2842 L 9069,2775 9117,2354 8375,2097 C 8360,1959 8329,1826 8280,1701 L 8799,1065 8548,731 7849,1097 C 7747,1013 7636,941 7514,888 L 7449,53 7045,3 Z M 7028,1623 C 7365,1665 7605,1984 7564,2336 7524,2687 7219,2937 6882,2895 6545,2853 6305,2534 6345,2182 6385,1831 6691,1580 7028,1623 Z"/>
      </g>
     </g>
     <g class="com.sun.star.drawing.ClosedBezierShape">
      <g id="id5">
       <path fill="rgb(106,98,39)" stroke="none" d="M 6152,8047 L 6559,8125 C 6576,8195 6602,8263 6636,8325 L 6409,8697 6564,8852 6904,8607 C 6962,8644 7026,8673 7094,8692 L 7186,9123 7400,9118 7475,8695 C 7543,8677 7608,8650 7667,8614 L 8023,8852 8172,8690 7937,8335 C 7973,8274 8000,8207 8018,8137 L 8431,8042 8427,7817 8021,7740 C 8004,7668 7978,7601 7944,7539 L 8171,7167 8016,7011 7677,7257 C 7618,7220 7554,7191 7487,7172 L 7395,6741 7180,6745 7106,7169 C 7038,7187 6973,7213 6914,7250 L 6557,7013 6408,7174 6643,7529 C 6607,7590 6580,7656 6562,7727 L 6149,7823 6152,8047 Z M 6966,7938 C 6963,7751 7105,7597 7284,7594 7464,7590 7611,7739 7614,7926 7618,8113 7476,8267 7296,8271 7117,8274 6969,8125 6966,7938 Z"/>
      </g>
     </g>
     <g class="com.sun.star.drawing.ClosedBezierShape">
      <g id="id6">
       <path fill="rgb(106,98,39)" stroke="none" d="M 6567,6689 L 6852,7183 7118,7084 7042,6525 C 7117,6475 7190,6415 7251,6344 L 7792,6485 7912,6220 7477,5880 C 7496,5786 7503,5691 7497,5598 L 7970,5299 7876,5022 7341,5102 C 7292,5023 7232,4955 7164,4892 L 7295,4335 7041,4209 6719,4656 C 6629,4635 6539,4626 6450,4631 L 6165,4135 5900,4232 5976,4791 C 5901,4841 5836,4904 5774,4975 L 5241,4837 5119,5102 5549,5439 C 5529,5533 5519,5626 5525,5720 L 5050,6018 5143,6295 5679,6214 C 5727,6293 5783,6370 5852,6434 L 5715,6999 5969,7125 6295,6669 C 6385,6689 6477,6695 6567,6689 Z M 6126,5468 C 6227,5247 6480,5153 6692,5258 6903,5363 6993,5627 6893,5848 6792,6070 6538,6163 6327,6059 6115,5953 6025,5688 6126,5468 Z"/>
      </g>
     </g>
     <g class="com.sun.star.drawing.ClosedBezierShape">
      <g id="id7">
       <path fill="rgb(106,98,39)" stroke="none" d="M 4603,7796 L 4880,7940 C 4878,7995 4884,8049 4896,8102 L 4658,8321 4739,8466 5032,8364 C 5067,8402 5107,8438 5152,8466 L 5132,8796 5288,8840 5426,8551 C 5479,8552 5531,8547 5581,8535 L 5791,8782 5930,8699 5832,8392 C 5869,8355 5902,8313 5929,8267 L 6246,8288 6288,8125 6010,7981 C 6012,7926 6007,7872 5995,7820 L 6233,7601 6152,7455 5858,7558 C 5824,7519 5783,7484 5739,7456 L 5759,7125 5603,7081 5465,7371 C 5413,7369 5360,7374 5310,7387 L 5100,7139 4961,7223 5059,7530 C 5022,7566 4988,7608 4961,7655 L 4645,7634 4603,7796 Z M 5211,7895 C 5245,7760 5379,7679 5509,7716 5639,7752 5715,7891 5681,8027 5646,8162 5512,8243 5382,8206 5252,8170 5176,8030 5211,7895 Z"/>
      </g>
     </g>
     <g class="com.sun.star.drawing.ClosedBezierShape">
      <g id="id8">
       <path fill="rgb(106,98,39)" stroke="none" d="M 2024,615 L 1652,858 C 1589,815 1523,781 1453,758 L 1377,297 1149,290 1049,736 C 978,751 908,776 843,812 L 475,542 309,705 541,1093 C 500,1158 468,1227 446,1299 L 3,1380 -3,1617 424,1721 C 439,1796 463,1869 497,1937 L 238,2321 395,2494 766,2251 C 828,2294 895,2328 964,2351 L 1041,2813 1269,2819 1369,2373 C 1440,2358 1509,2333 1576,2298 L 1943,2568 2109,2404 1877,2016 C 1918,1952 1950,1882 1972,1810 L 2415,1730 2421,1492 1993,1388 C 1980,1314 1955,1241 1922,1172 L 2180,788 2024,615 Z M 1459,1307 C 1590,1452 1584,1680 1446,1816 1307,1952 1089,1946 958,1802 828,1658 834,1430 972,1294 1110,1157 1329,1163 1459,1307 Z"/>
      </g>
     </g>
    </g>
   </g>
  </g>
 </g>
</svg>