<?xml version="1.0" encoding="UTF-8"?>

<svg version="1.2" baseProfile="tiny" width="160mm" height="160mm" viewBox="0 0 16000 16000" preserveAspectRatio="xMidYMid" fill-rule="evenodd" clip-path="url(#presentation_clip_path)" stroke-width="28.222" stroke-linejoin="round" xmlns="http://www.w3.org/2000/svg" xmlns:ooo="http://xml.openoffice.org/svg/export" xmlns:xlink="http://www.w3.org/1999/xlink" xml:space="preserve">
 <defs class="ClipPathGroup">
  <clipPath id="presentation_clip_path" clipPathUnits="userSpaceOnUse">
   <rect x="0" y="0" width="16000" height="16000"/>
  </clipPath>
 </defs>
 <defs class="TextShapeIndex">
  <g ooo:slide="id1" ooo:id-list="id3 id4 id5 id6 id7 id8 id9"/>
 </defs>
 <defs class="EmbeddedBulletChars">
  <g id="bullet-char-template(57356)" transform="scale(0.00048828125,-0.00048828125)">
   <path d="M 580,1141 L 1163,571 580,0 -4,571 580,1141 Z"/>
  </g>
  <g id="bullet-char-template(57354)" transform="scale(0.00048828125,-0.00048828125)">
   <path d="M 8,1128 L 1137,1128 1137,0 8,0 8,1128 Z"/>
  </g>
  <g id="bullet-char-template(10146)" transform="scale(0.00048828125,-0.00048828125)">
   <path d="M 174,0 L 602,739 174,1481 1456,739 174,0 Z M 1358,739 L 309,1346 659,739 1358,739 Z"/>
  </g>
  <g id="bullet-char-template(10132)" transform="scale(0.00048828125,-0.00048828125)">
   <path d="M 2015,739 L 1276,0 717,0 1260,543 174,543 174,936 1260,936 717,1481 1274,1481 2015,739 Z"/>
  </g>
  <g id="bullet-char-template(10007)" transform="scale(0.00048828125,-0.00048828125)">
   <path d="M 0,-2 C -7,14 -16,27 -25,37 L 356,567 C 262,823 215,952 215,954 215,979 228,992 255,992 264,992 276,990 289,987 310,991 331,999 354,1012 L 381,999 492,748 772,1049 836,1024 860,1049 C 881,1039 901,1025 922,1006 886,937 835,863 770,784 769,783 710,716 594,584 L 774,223 C 774,196 753,168 711,139 L 727,119 C 717,90 699,76 672,76 641,76 570,178 457,381 L 164,-76 C 142,-110 111,-127 72,-127 30,-127 9,-110 8,-76 1,-67 -2,-52 -2,-32 -2,-23 -1,-13 0,-2 Z"/>
  </g>
  <g id="bullet-char-template(10004)" transform="scale(0.00048828125,-0.00048828125)">
   <path d="M 285,-33 C 182,-33 111,30 74,156 52,228 41,333 41,471 41,549 55,616 82,672 116,743 169,778 240,778 293,778 328,747 346,684 L 369,508 C 377,444 397,411 428,410 L 1163,1116 C 1174,1127 1196,1133 1229,1133 1271,1133 1292,1118 1292,1087 L 1292,965 C 1292,929 1282,901 1262,881 L 442,47 C 390,-6 338,-33 285,-33 Z"/>
  </g>
  <g id="bullet-char-template(9679)" transform="scale(0.00048828125,-0.00048828125)">
   <path d="M 813,0 C 632,0 489,54 383,161 276,268 223,411 223,592 223,773 276,916 383,1023 489,1130 632,1184 813,1184 992,1184 1136,1130 1245,1023 1353,916 1407,772 1407,592 1407,412 1353,268 1245,161 1136,54 992,0 813,0 Z"/>
  </g>
  <g id="bullet-char-template(8226)" transform="scale(0.00048828125,-0.00048828125)">
   <path d="M 346,457 C 273,457 209,483 155,535 101,586 74,649 74,723 74,796 101,859 155,911 209,963 273,989 346,989 419,989 480,963 531,910 582,859 608,796 608,723 608,648 583,586 532,535 482,483 420,457 346,457 Z"/>
  </g>
  <g id="bullet-char-template(8211)" transform="scale(0.00048828125,-0.00048828125)">
   <path d="M -4,459 L 1135,459 1135,606 -4,606 -4,459 Z"/>
  </g>
 </defs>
 <defs class="TextEmbeddedBitmaps"/>
 <g>
  <g id="id2" class="Master_Slide">
   <g id="bg-id2" class="Background"/>
   <g id="bo-id2" class="BackgroundObjects"/>
  </g>
 </g>
 <g class="SlideGroup">
  <g>
   <g id="id1" class="Slide" clip-path="url(#presentation_clip_path)">
    <g class="Page">
     <g class="com.sun.star.drawing.CustomShape">
      <g id="id3">
       <path fill="rgb(128,82,54)" stroke="none" d="M 342,0 C 171,0 0,171 0,342 L 0,15658 C 0,15829 171,16001 342,16001 L 15658,16001 C 15829,16001 16001,15829 16001,15658 L 16001,342 C 16001,171 15829,0 15658,0 L 342,0 Z M 0,0 L 0,0 Z M 16001,16001 L 16001,16001 Z"/>
      </g>
     </g>
     <g class="Group">
      <g class="com.sun.star.drawing.CustomShape">
       <g id="id4">
        <path fill="rgb(238,208,9)" stroke="none" d="M 1750,1000 C 2175,1000 2500,1325 2500,1750 2500,2175 2175,2500 1750,2500 1325,2500 1000,2175 1000,1750 1000,1325 1325,1000 1750,1000 Z M 1000,1000 L 1000,1000 Z M 2501,2501 L 2501,2501 Z"/>
       </g>
      </g>
      <g class="com.sun.star.drawing.CustomShape">
       <g id="id5">
        <path fill="rgb(238,208,9)" stroke="none" d="M 14249,1000 C 14674,1000 15000,1325 15000,1750 15000,2175 14674,2501 14249,2501 13824,2501 13499,2175 13499,1750 13499,1325 13824,1000 14249,1000 Z M 13499,1000 L 13499,1000 Z M 15001,2502 L 15001,2502 Z"/>
       </g>
      </g>
      <g class="com.sun.star.drawing.CustomShape">
       <g id="id6">
        <path fill="rgb(238,208,9)" stroke="none" d="M 14251,13500 C 14677,13500 15002,13825 15002,14251 15002,14677 14677,15002 14251,15002 13825,15002 13500,14677 13500,14251 13500,13825 13825,13500 14251,13500 Z M 13500,13500 L 13500,13500 Z M 15003,15003 L 15003,15003 Z"/>
       </g>
      </g>
      <g class="com.sun.star.drawing.CustomShape">
       <g id="id7">
        <path fill="rgb(238,208,9)" stroke="none" d="M 1751,13504 C 2175,13504 2500,13829 2500,14253 2500,14677 2175,15002 1751,15002 1327,15002 1002,14677 1002,14253 1002,13829 1327,13504 1751,13504 Z M 1002,13504 L 1002,13504 Z M 2501,15003 L 2501,15003 Z"/>
       </g>
      </g>
     </g>
     <g class="Group">
      <g class="com.sun.star.drawing.ClosedBezierShape">
       <g id="id8">
        <path fill="rgb(71,46,30)" stroke="none" d="M 8000,3490 C 9646,3490 10980,4825 10980,6473 10980,8335 8745,8523 8745,10201 L 7255,10201 C 7255,7777 9490,7964 9490,6473 9490,5654 8818,4982 8000,4982 7182,4982 6510,5654 6510,6473 L 5020,6473 C 5020,4825 6354,3490 8000,3490 Z"/>
       </g>
      </g>
      <g class="com.sun.star.drawing.CustomShape">
       <g id="id9">
        <path fill="rgb(71,46,30)" stroke="none" d="M 7967,10776 C 8458,10776 8834,11152 8834,11643 8834,12134 8458,12510 7967,12510 7476,12510 7100,12134 7100,11643 7100,11152 7476,10776 7967,10776 Z M 7100,10776 L 7100,10776 Z M 8835,12511 L 8835,12511 Z"/>
       </g>
      </g>
     </g>
    </g>
   </g>
  </g>
 </g>
</svg>