<?xml version="1.0" encoding="utf-8"?>
<!-- Generator: Adobe Illustrator 16.0.0, SVG Export Plug-In . SVG Version: 6.00 Build 0)  -->
<!DOCTYPE svg PUBLIC "-//W3C//DTD SVG 1.1//EN" "http://www.w3.org/Graphics/SVG/1.1/DTD/svg11.dtd">
<svg version="1.1" id="Layer_1" xmlns="http://www.w3.org/2000/svg" xmlns:xlink="http://www.w3.org/1999/xlink" x="0px" y="0px"
	 width="169.563px" height="189.644px" viewBox="0 0 169.563 189.644" enable-background="new 0 0 169.563 189.644"
	 xml:space="preserve">
<g>
	<g>
		<defs>
			<path id="SVGID_1_" d="M84.764,0.014c-1.387,0-2.681,0.301-3.644,0.845L3.674,44.725c-1.975,1.119-3.643,3.954-3.643,6.191
				v87.733c0,2.235,1.667,5.071,3.643,6.19l77.446,43.867c0.963,0.542,2.256,0.843,3.644,0.843s2.68-0.301,3.642-0.843
				l77.447-43.867c1.975-1.119,3.644-3.955,3.644-6.19V50.916c0-2.237-1.669-5.072-3.644-6.191L88.406,0.859
				C87.444,0.315,86.151,0.014,84.764,0.014z"/>
		</defs>
		<clipPath id="SVGID_2_">
			<use xlink:href="#SVGID_1_"  overflow="visible"/>
		</clipPath>
		<g clip-path="url(#SVGID_2_)">
			<g>
				<defs>
					<polygon id="SVGID_3_" points="84.176,94.762 169.505,144.12 169.505,47.077 					"/>
				</defs>
				<linearGradient id="SVGID_4_" gradientUnits="userSpaceOnUse" x1="112.8628" y1="97.1147" x2="178.2617" y2="95.363">
					<stop  offset="0" style="stop-color:#72CBCC"/>
					<stop  offset="1" style="stop-color:#00AFCC"/>
				</linearGradient>
				<use xlink:href="#SVGID_3_"  overflow="visible" fill="url(#SVGID_4_)"/>
				<clipPath id="SVGID_5_">
					<use xlink:href="#SVGID_3_"  overflow="visible"/>
				</clipPath>
				<linearGradient id="SVGID_6_" gradientUnits="userSpaceOnUse" x1="112.8325" y1="95.9741" x2="178.2317" y2="94.2224">
					<stop  offset="0" style="stop-color:#0476A4"/>
					<stop  offset="1" style="stop-color:#4296C7"/>
				</linearGradient>
				<rect x="84.176" y="47.077" clip-path="url(#SVGID_5_)" fill="url(#SVGID_6_)" width="85.33" height="97.043"/>
			</g>
			<g>
				<defs>
					<polygon id="SVGID_7_" points="84.545,94.762 169.874,47.077 84.545,-1.443 					"/>
				</defs>
				<linearGradient id="SVGID_8_" gradientUnits="userSpaceOnUse" x1="126.6606" y1="35.2295" x2="127.2444" y2="73.1842">
					<stop  offset="0" style="stop-color:#0476A4"/>
					<stop  offset="1" style="stop-color:#4296C7"/>
				</linearGradient>
				<use xlink:href="#SVGID_7_"  overflow="visible" fill="url(#SVGID_8_)"/>
				<clipPath id="SVGID_9_">
					<use xlink:href="#SVGID_7_"  overflow="visible"/>
				</clipPath>
				<linearGradient id="SVGID_10_" gradientUnits="userSpaceOnUse" x1="127.0347" y1="35.2227" x2="127.6184" y2="73.1769">
					<stop  offset="0" style="stop-color:#0476A4"/>
					<stop  offset="1" style="stop-color:#4296C7"/>
				</linearGradient>
				<polygon clip-path="url(#SVGID_9_)" fill="url(#SVGID_10_)" points="49.711,79.834 97.786,-32.339 204.708,13.484 
					156.633,125.655 				"/>
			</g>
			<g>
				<defs>
					<polygon id="SVGID_11_" points="84.545,191.007 169.874,143.32 84.545,94.801 					"/>
				</defs>
				<linearGradient id="SVGID_12_" gradientUnits="userSpaceOnUse" x1="122.9253" y1="163.8115" x2="96.0651" y2="142.7907">
					<stop  offset="0" style="stop-color:#72CBCC"/>
					<stop  offset="1" style="stop-color:#00AFCC"/>
				</linearGradient>
				<use xlink:href="#SVGID_11_"  overflow="visible" fill="url(#SVGID_12_)"/>
				<clipPath id="SVGID_13_">
					<use xlink:href="#SVGID_11_"  overflow="visible"/>
				</clipPath>
				<linearGradient id="SVGID_14_" gradientUnits="userSpaceOnUse" x1="134.7007" y1="148.7666" x2="107.8401" y2="127.7455">
					<stop  offset="0" style="stop-color:#0476A4"/>
					<stop  offset="1" style="stop-color:#4296C7"/>
				</linearGradient>
				<rect x="84.545" y="94.801" clip-path="url(#SVGID_13_)" fill="url(#SVGID_14_)" width="85.329" height="96.206"/>
			</g>
			<g>
				<defs>
					<polygon id="SVGID_15_" points="0.022,144.12 85.352,94.762 0.022,47.077 					"/>
				</defs>
				<linearGradient id="SVGID_16_" gradientUnits="userSpaceOnUse" x1="38.2783" y1="180.043" x2="45.2853" y2="6.6193">
					<stop  offset="0" style="stop-color:#72CBCC"/>
					<stop  offset="1" style="stop-color:#00AFCC"/>
				</linearGradient>
				<use xlink:href="#SVGID_15_"  overflow="visible" fill="url(#SVGID_16_)"/>
				<clipPath id="SVGID_17_">
					<use xlink:href="#SVGID_15_"  overflow="visible"/>
				</clipPath>
				<linearGradient id="SVGID_18_" gradientUnits="userSpaceOnUse" x1="39.2734" y1="180.084" x2="46.2804" y2="6.6593">
					<stop  offset="0" style="stop-color:#0476A4"/>
					<stop  offset="1" style="stop-color:#4296C7"/>
				</linearGradient>
				<polygon clip-path="url(#SVGID_17_)" fill="url(#SVGID_18_)" points="83.794,35.653 98.343,142.35 1.579,155.545 
					-12.968,48.849 				"/>
			</g>
			<g>
				<defs>
					<polygon id="SVGID_19_" points="-0.347,47.077 84.983,94.762 84.983,-1.443 					"/>
				</defs>
				<linearGradient id="SVGID_20_" gradientUnits="userSpaceOnUse" x1="42.791" y1="23.8618" x2="73.7383" y2="92.1801">
					<stop  offset="0" style="stop-color:#72CBCC"/>
					<stop  offset="1" style="stop-color:#00AFCC"/>
				</linearGradient>
				<use xlink:href="#SVGID_19_"  overflow="visible" fill="url(#SVGID_20_)"/>
				<clipPath id="SVGID_21_">
					<use xlink:href="#SVGID_19_"  overflow="visible"/>
				</clipPath>
				<linearGradient id="SVGID_22_" gradientUnits="userSpaceOnUse" x1="33.8301" y1="27.9199" x2="64.7776" y2="96.2388">
					<stop  offset="0" style="stop-color:#0476A4"/>
					<stop  offset="1" style="stop-color:#4296C7"/>
				</linearGradient>
				<polygon clip-path="url(#SVGID_21_)" fill="url(#SVGID_22_)" points="75.017,122.168 -31.245,83.525 9.618,-28.849 
					115.882,9.792 				"/>
			</g>
			<g>
				<linearGradient id="SVGID_23_" gradientUnits="userSpaceOnUse" x1="112.6909" y1="70.7031" x2="44.9575" y2="163.5446">
					<stop  offset="0" style="stop-color:#0476A4"/>
					<stop  offset="1" style="stop-color:#4296C7"/>
				</linearGradient>
				<polygon fill="url(#SVGID_23_)" points="84.983,94.801 -0.347,143.32 84.983,191.007 				"/>
			</g>
		</g>
	</g>
	
		<radialGradient id="SVGID_24_" cx="75.1978" cy="78.0703" r="81.9912" gradientTransform="matrix(0.8772 0 0 0.8772 18.6276 25.8931)" gradientUnits="userSpaceOnUse">
		<stop  offset="0.3129" style="stop-color:#4296C7"/>
		<stop  offset="0.908" style="stop-color:#4296C7;stop-opacity:0"/>
		<stop  offset="1" style="stop-color:#3DB54A;stop-opacity:0"/>
	</radialGradient>
	<circle fill="url(#SVGID_24_)" cx="84.589" cy="94.373" r="71.92"/>
</g>
<path fill="#FFFFFF" d="M110.74,148.245l53.598-52.812l-13.204-13.401l-53.597,52.815L110.74,148.245z M111.22,133.1l-2.234,2.203
	l-3.852-3.906l2.234-2.205L111.22,133.1z M121.039,129.665l-2.234,2.2l-6.97-7.076l2.233-2.197L121.039,129.665z M124.62,119.898
	l-2.234,2.199l-3.85-3.908l2.231-2.201L124.62,119.898z M134.437,116.46l-2.234,2.2l-6.968-7.072l2.231-2.2L134.437,116.46z
	 M138.017,106.695l-2.232,2.197l-3.852-3.904l2.233-2.202L138.017,106.695z M147.836,103.259l-2.233,2.197l-6.97-7.072l2.233-2.202
	L147.836,103.259z M151.417,93.493l-2.232,2.198l-3.854-3.909l2.233-2.199L151.417,93.493z"/>
<path fill="#FFFFFF" d="M84.426,52.819c-7.86,0-14.232,6.372-14.232,14.232c0,7.86,6.372,14.231,14.232,14.231
	s14.232-6.371,14.232-14.231C98.659,59.191,92.287,52.819,84.426,52.819z M84.426,77.926c-6.006,0-10.875-4.869-10.875-10.875
	c0-6.007,4.869-10.875,10.875-10.875c6.006,0,10.876,4.869,10.876,10.875C95.302,73.057,90.432,77.926,84.426,77.926z"/>
<path fill="#FFFFFF" d="M105.52,40.994c0,0-36.203-0.146-41.603,0c-5.401,0.146-4.526,7.59-4.526,7.59s-0.584,34.305-0.146,39.707
	c0.438,5.4,6.569,5.4,6.569,5.4s34.451,0.146,38.832,0c4.378-0.146,4.524-5.693,4.524-5.693s0-38.539,0-41.896
	C109.17,42.745,105.52,40.994,105.52,40.994z M84.5,83.767c-9.352,0-16.935-7.582-16.935-16.934S75.147,49.898,84.5,49.898
	c9.353,0,16.935,7.582,16.935,16.934S93.852,83.767,84.5,83.767z"/>
<path fill="#FFFFFF" d="M70.339,97.048c-1.149,1.127-2.302,2.25-3.452,3.376c-2.795,2.74-5.595,5.477-8.377,8.229
	c-3.431,3.391-6.868,6.78-10.334,10.137c-3.107,3.008-6.201,6.03-9.29,9.054c-1.809,1.771-4.198,3.576-5.541,5.737
	c-1.173,1.882-1.265,4.929,0.5,6.533c1.605,1.457,3.941,1.752,6.131,0.438c2.335-1.75,40.583-39.415,40.583-39.415l0.146,54.744
	c0,0,0.875,3.646,5.109,3.938c2.335,0.146,4.525-2.481,4.816-3.939c0.291-1.459-0.146-54.45-0.146-54.45l16.35,16.494l6.86-6.568
	L99.681,97.048H70.339z"/>
<path fill="#FFFFFF" d="M128.441,139.676l7.151-7.3c-0.122,0.123,6.464,6.689,6.822,7.848c0.366,1.18,0.294,3.896-0.837,4.706
	c-1.021,0.729-3.176,3.173-6.423,0.583C133.458,144.159,128.441,139.676,128.441,139.676z"/>
<path fill="#FFFFFF" d="M84.498,59.541c0,0-6.422,1.304-6.714,6.121c0.074,1.094-1.459,2.115-1.678,0.072
	c-0.074-1.265,1.24-6.812,7.59-7.505C84.791,58.131,85.557,58.849,84.498,59.541z"/>
</svg>
